<?xml version="1.0" standalone="no"?><!DOCTYPE svg PUBLIC "-//W3C//DTD SVG 1.1//EN" "http://www.w3.org/Graphics/SVG/1.1/DTD/svg11.dtd"><svg t="1493217550292" class="icon" style="" viewBox="0 0 1024 1024" version="1.1" xmlns="http://www.w3.org/2000/svg" p-id="1013" xmlns:xlink="http://www.w3.org/1999/xlink" width="200" height="200"><defs><style type="text/css"></style></defs><path d="M909.812 962.028c-13.094 0-26.188-4.996-36.179-14.987L73.958 147.368c-19.98-19.98-19.98-52.378 0-72.359 19.983-19.98 52.38-19.98 72.36 0L945.99 874.683c19.981 19.981 19.981 52.378 0 72.36-9.99 9.99-23.084 14.985-36.179 14.985z" p-id="1014" fill="#ffffff"></path><path d="M110.138 962.028c-13.094 0-26.188-4.996-36.179-14.987-19.98-19.98-19.98-52.378 0-72.359L873.632 75.01c19.982-19.98 52.377-19.98 72.36 0 19.98 19.981 19.98 52.378 0 72.36L146.316 947.041c-9.99 9.99-23.084 14.986-36.179 14.986z" p-id="1015" fill="#ffffff"></path></svg>