<?xml version="1.0" standalone="no"?><!DOCTYPE svg PUBLIC "-//W3C//DTD SVG 1.1//EN" "http://www.w3.org/Graphics/SVG/1.1/DTD/svg11.dtd"><svg t="1493204906377" class="icon" style="" viewBox="0 0 1024 1024" version="1.1" xmlns="http://www.w3.org/2000/svg" p-id="3290" xmlns:xlink="http://www.w3.org/1999/xlink" width="200" height="200"><defs><style type="text/css"></style></defs><path d="M918.592 950.656c-8.192 0-16.32-3.136-22.592-9.344l-221.76-221.76c-12.48-12.416-12.48-32.768 0-45.248C734.656 613.76 768 533.376 768 447.936 768 271.616 624.384 128 447.936 128 271.616 128 128 271.616 128 447.936 128 624.384 271.616 768 447.936 768c39.424 0 77.824-7.104 114.24-20.992 16.448-6.208 35.072 1.984 41.344 18.56 6.272 16.448-2.048 34.944-18.496 41.344C541.312 823.488 495.104 832 447.936 832 236.224 832 64 659.776 64 447.936 64 236.224 236.224 64 447.936 64 659.776 64 832 236.224 832 447.936c0 91.84-32 178.688-90.816 248L941.248 896c12.48 12.48 12.48 32.768 0 45.248C934.976 947.52 926.72 950.656 918.592 950.656L918.592 950.656z" p-id="3291" fill="#ffffff"></path><path d="M923.072 960" p-id="3292" fill="#ffffff"></path></svg>